<svg width="56" height="42" viewBox="0 0 56 42" fill="none" xmlns="http://www.w3.org/2000/svg">
<path d="M54.9367 42H1.06329C0.476088 42 0 41.5195 0 40.9268V1.07317C0 0.480514 0.476088 0 1.06329 0H54.9367C55.5239 0 56 0.480514 56 1.07317V40.9268C56 41.5195 55.5239 42 54.9367 42ZM3.08673 39.8537H53.8734V2.14635H2.12658V37.7873L22.891 16.83C23.0904 16.6288 23.361 16.5159 23.6428 16.5159C23.9245 16.5159 24.1952 16.6288 24.3945 16.83L31.5574 24.0598L43.6095 11.8956C44.0244 11.4765 44.6983 11.4765 45.113 11.8956C45.5285 12.3149 45.5285 12.9943 45.113 13.4133L32.3091 26.3362C32.1097 26.5374 31.8391 26.6504 31.5574 26.6504C31.2756 26.6504 31.005 26.5374 30.8056 26.3362L23.6428 19.1065L3.08673 39.8537ZM47.6399 16.2988C47.0527 16.2988 46.5766 15.8183 46.5766 15.2257V10.061H41.4595C40.8723 10.061 40.3962 9.58049 40.3962 8.98783C40.3962 8.39517 40.8723 7.91466 41.4595 7.91466H47.6399C48.2271 7.91466 48.7032 8.39517 48.7032 8.98783V15.2257C48.7032 15.8183 48.2271 16.2988 47.6399 16.2988Z" fill="#323232"/>
</svg>
