<svg width="44" height="44" viewBox="0 0 44 44" fill="none" xmlns="http://www.w3.org/2000/svg">
<path d="M2 17V7C2 4.23857 4.23857 2 7 2H37C39.7615 2 42 4.23857 42 7V17M2 17V29.5M2 17H14.5M42 17V29.5M42 17H29.5M2 29.5V37C2 39.7615 4.23857 42 7 42H14.5M2 29.5H14.5M14.5 17V29.5M14.5 17H29.5M42 29.5V37C42 39.7615 39.7615 42 37 42H29.5M42 29.5H29.5M29.5 17V29.5M14.5 42V29.5M14.5 42H29.5M14.5 29.5H29.5M29.5 42V29.5M17 9.5H27" stroke="#323232" stroke-width="2.5" stroke-linecap="round" stroke-linejoin="round"/>
</svg>
