<svg width="42" height="42" viewBox="0 0 42 42" fill="none" xmlns="http://www.w3.org/2000/svg">
<path fill-rule="evenodd" clip-rule="evenodd" d="M21 2.93024C30.9796 2.93024 39.0698 11.0204 39.0698 21C39.0698 21.8092 39.7258 22.4651 40.5349 22.4651C41.3441 22.4651 42.0001 21.8092 42.0001 21C42.0001 9.40203 32.5981 0 21 0C20.1909 0 19.5349 0.655963 19.5349 1.46512C19.5349 2.27427 20.1909 2.93024 21 2.93024Z" fill="#323232"/>
<path fill-rule="evenodd" clip-rule="evenodd" d="M21 13.6744C21.8092 13.6744 22.4651 14.3304 22.4651 15.1396V21.4884H28.814C29.6231 21.4884 30.2791 22.1444 30.2791 22.9535C30.2791 23.7627 29.6231 24.4186 28.814 24.4186H21C20.1909 24.4186 19.5349 23.7627 19.5349 22.9535V15.1396C19.5349 14.3304 20.1909 13.6744 21 13.6744Z" fill="#323232"/>
<path opacity="0.5" fill-rule="evenodd" clip-rule="evenodd" d="M15.3341 2.24283C15.6255 2.9977 15.2497 3.84586 14.4949 4.13727C14.2186 4.24393 13.9456 4.35717 13.676 4.47684C12.9364 4.80516 12.0707 4.4718 11.7424 3.73223C11.4141 2.99268 11.7475 2.12699 12.487 1.79866C12.8006 1.65948 13.1182 1.52771 13.4396 1.40363C14.1945 1.11223 15.0427 1.48796 15.3341 2.24283ZM8.59087 5.84256C9.14892 6.42851 9.12628 7.35591 8.54033 7.91395C8.32609 8.11797 8.11685 8.32721 7.91283 8.54145C7.35479 9.1274 6.42739 9.15004 5.84144 8.59199C5.2555 8.03395 5.23287 7.10657 5.79091 6.52062C6.02781 6.27186 6.27074 6.02893 6.5195 5.79203C7.10545 5.23399 8.03283 5.25661 8.59087 5.84256ZM3.73111 11.7436C4.47068 12.0719 4.80404 12.9375 4.47572 13.6771C4.35605 13.9467 4.24281 14.2197 4.13615 14.496C3.84474 15.2509 2.99658 15.6266 2.24171 15.3352C1.48684 15.0438 1.11111 14.1956 1.40251 13.4408C1.52659 13.1193 1.65836 12.8017 1.79754 12.4882C2.12587 11.7486 2.99156 11.4152 3.73111 11.7436ZM1.50632 19.0556C2.31524 19.0751 2.95516 19.7467 2.93561 20.5557C2.93203 20.7037 2.93024 20.8522 2.93024 21.0011C2.93024 21.1501 2.93203 21.2986 2.93561 21.4467C2.95516 22.2556 2.31524 22.9272 1.50632 22.9467C0.697377 22.9663 0.0257666 22.3263 0.00623171 21.5174C0.00209031 21.3459 0 21.1738 0 21.0011C0 20.8286 0.00209031 20.6565 0.00623171 20.485C0.0257666 19.676 0.697377 19.036 1.50632 19.0556ZM39.7584 26.6672C40.5132 26.9584 40.8889 27.8066 40.5974 28.5615C40.4734 28.883 40.3417 29.2006 40.2024 29.5142C39.8743 30.2538 39.0085 30.587 38.2689 30.2587C37.5293 29.9305 37.196 29.0647 37.5244 28.3251C37.644 28.0555 37.7573 27.7826 37.8639 27.5064C38.1554 26.7514 39.0034 26.3757 39.7584 26.6672ZM2.24171 26.6672C2.99658 26.3757 3.84474 26.7514 4.13615 27.5064C4.24281 27.7826 4.35605 28.0555 4.47572 28.3251C4.80404 29.0647 4.47068 29.9305 3.73111 30.2587C2.99156 30.587 2.12587 30.2538 1.79754 29.5142C1.65836 29.2006 1.52659 28.883 1.40251 28.5615C1.11111 27.8066 1.48684 26.9584 2.24171 26.6672ZM36.1585 33.4102C36.7446 33.9683 36.7672 34.8957 36.2091 35.4817C35.9722 35.7304 35.7293 35.9734 35.4805 36.2102C34.8946 36.7683 33.9673 36.7456 33.4092 36.1598C32.8511 35.5737 32.8737 34.6464 33.4598 34.0883C33.6739 33.8843 33.8831 33.6751 34.0872 33.4608C34.6453 32.875 35.5727 32.8523 36.1585 33.4102ZM5.84144 33.4102C6.42739 32.8523 7.35479 32.875 7.91283 33.4608C8.11687 33.6751 8.32609 33.8843 8.54033 34.0883C9.12628 34.6464 9.14892 35.5737 8.59087 36.1598C8.03283 36.7456 7.10545 36.7683 6.5195 36.2102C6.27076 35.9734 6.02781 35.7304 5.79091 35.4817C5.23287 34.8957 5.2555 33.9683 5.84144 33.4102ZM11.7424 38.2701C12.0708 37.5305 12.9364 37.1971 13.676 37.5254C13.9456 37.6452 14.2186 37.7583 14.4949 37.865C15.2497 38.1564 15.6255 39.0046 15.3341 39.7595C15.0427 40.5143 14.1945 40.8901 13.4396 40.5987C13.1182 40.4746 12.8006 40.3428 12.487 40.2037C11.7475 39.8753 11.4141 39.0097 11.7424 38.2701ZM30.2576 38.2701C30.586 39.0097 30.2525 39.8753 29.5129 40.2037C29.1994 40.3428 28.8818 40.4746 28.5604 40.5987C27.8056 40.8901 26.9574 40.5143 26.6659 39.7595C26.3747 39.0046 26.7503 38.1564 27.5051 37.865C27.7814 37.7583 28.0545 37.6452 28.324 37.5254C29.0636 37.1971 29.9292 37.5305 30.2576 38.2701ZM19.0543 40.4949C19.0741 39.686 19.7457 39.046 20.5544 39.0656C20.7025 39.0691 20.851 39.0709 21 39.0709C21.1491 39.0709 21.2975 39.0691 21.4456 39.0656C22.2544 39.046 22.926 39.686 22.9457 40.4949C22.9652 41.3037 22.3253 41.9753 21.5163 41.995C21.3446 41.9991 21.1725 42.0011 21 42.0011C20.8275 42.0011 20.6554 41.9991 20.4837 41.995C19.6748 41.9753 19.0348 41.3037 19.0543 40.4949Z" fill="#1C274C"/>
</svg>
