<svg width="70" height="70" viewBox="0 0 70 70" fill="none" xmlns="http://www.w3.org/2000/svg">
<path d="M22.6041 29.6964L30.2451 35.5905C30.5391 37.9667 32.5422 39.8146 34.9999 39.8146C37.6595 39.8146 39.8143 37.6585 39.8143 35.0001C39.8143 34.8971 39.7905 34.8016 39.7839 34.6996L50.9817 21.4521C51.764 20.5754 51.7772 19.3124 51.0154 18.6352C50.2526 17.956 49.0015 18.1188 48.2214 18.9954L37.2176 30.7511C36.5514 30.4016 35.8038 30.1857 34.9997 30.1857C34.1381 30.1857 33.3419 30.4299 32.643 30.826L25.448 25.8162C24.5202 25.1326 23.1291 25.4494 22.3424 26.5215C21.5581 27.5912 21.6731 29.0138 22.6041 29.6964Z" fill="#323232"/>
<path d="M35 0C33.4657 0 32.2223 1.24359 32.2223 2.77785C32.2223 4.31211 33.4659 5.55557 35 5.55557C43.1402 5.55666 50.4828 8.84666 55.8204 14.1796C61.1535 19.5161 64.4435 26.8598 64.4444 35C64.4435 43.1402 61.1535 50.4828 55.8204 55.8204C50.4828 61.1535 43.1402 64.4433 35 64.4444C26.8599 64.4433 19.5161 61.1533 14.1798 55.8204C8.84666 50.4828 5.55666 43.1402 5.55557 35C5.55666 29.0853 7.30146 23.5927 10.2996 18.9834L12.8777 20.9103C13.1566 21.1187 13.5254 21.1708 13.8521 21.047C14.1776 20.9234 14.4207 20.6445 14.4923 20.3016L16.2273 12.0954C16.594 10.3559 16.2273 12.0954 16.594 10.3559L17.3785 6.64713C17.462 6.25666 17.309 5.85498 16.991 5.61518C16.6708 5.37756 16.2423 5.34502 15.8907 5.53602L3.61525 12.1723C3.30709 12.3405 3.10639 12.6509 3.0815 12.9991C3.05539 13.3463 3.20947 13.6849 3.48947 13.8943L5.83748 15.6488C2.15277 21.1936 -0.000956712 27.8504 3.18815e-07 35C0.00218782 54.3315 15.6685 69.9978 35 70C54.3316 69.9978 69.9979 54.3315 70 35C69.9979 15.6685 54.3316 0.0021875 35 0Z" fill="#323232"/>
</svg>
